# xmcd CD database file
#
# Track frame offsets:
#	150
#	19093
#	36983
#	54087
#	77018
#	97673
#	116836
#	137101
#	161550
#	174035
#	197613
#	217997
#	240131
#	256277
#	273668
#	292245
#
# Disc length: 4260 seconds
#
# Revision: 0
# Processed by: cddbd v1.5.1PL0 Copyright (c) Steve Scherf et al.
# Submitted via: CDex 1.51
#
DISCID=d210a210
DTITLE=B-Tribe - 2001-Mystic Hits - Volume 2
DYEAR=2001
DGENRE=New Age
TTITLE0=Nadie entiende
TTITLE1=Te siento
TTITLE2=Que mala vida
TTITLE3=O fiesta fatal!
TTITLE4=Manita
TTITLE5=Yo quiero todo
TTITLE6=Ahoy (Feat. Deborah Blando)
TTITLE7=You Won't See Me Cry
TTITLE8=Hablando
TTITLE9=Sometimes
TTITLE10=Lo siento
TTITLE11=Ahoy ahoy
TTITLE12=Desesperado
TTITLE13=Love, Tears, Heartaches+Devotion
TTITLE14=Hablame
TTITLE15=Sensual Sensual
EXTD=YEAR: 2001
EXTT0=
EXTT1=
EXTT2=
EXTT3=
EXTT4=
EXTT5=
EXTT6=
EXTT7=
EXTT8=
EXTT9=
EXTT10=
EXTT11=
EXTT12=
EXTT13=
EXTT14=
EXTT15=
PLAYORDER=
